# xmcd
#
# Track frame offsets: 
#        150
#        22474
#        38465
#        55640
#        74899
#        97074
#        116084
#        127334
#        154042
#        165852
#        184460
#        202656
#        223863
#        252507
#
# Disc length: 3539 seconds
#
# Revision: 1
# Processed by: cddbd v1.5.2PL0 Copyright (c) Steve Scherf et al.
# Submitted via: ExactAudioCopy v0.99pb4
#
DISCID=d40dd10e
DTITLE=Catfish Keith - If I Could Holler
DYEAR=2007
DGENRE=Blues
TTITLE0=If I Could Holler
TTITLE1=Pack My Little Suitcase
TTITLE2=The Cuckoo
TTITLE3=Malted Milk
TTITLE4=Rock Me
TTITLE5=Losin' Out
TTITLE6=Big Fat Woman
TTITLE7=Gonna Live That Life
TTITLE8=West Indian Waltz
TTITLE9=Cross The River Of Jordan
TTITLE10=Nineteen Birddogs
TTITLE11=My Gal
TTITLE12=Jitterbug Swing
TTITLE13=Satisfied, Tickled Too
EXTD=YEAR: 2007
EXTT0=
EXTT1=
EXTT2=
EXTT3=
EXTT4=
EXTT5=
EXTT6=
EXTT7=
EXTT8=
EXTT9=
EXTT10=
EXTT11=
EXTT12=
EXTT13=
PLAYORDER=
